<?xml version="1.0" encoding="utf-8"?>
<!-- Generator: Adobe Illustrator 17.0.0, SVG Export Plug-In . SVG Version: 6.00 Build 0)  -->
<!DOCTYPE svg PUBLIC "-//W3C//DTD SVG 1.1//EN" "http://www.w3.org/Graphics/SVG/1.1/DTD/svg11.dtd">
<svg version="1.1" id="Layer_1" xmlns="http://www.w3.org/2000/svg" xmlns:xlink="http://www.w3.org/1999/xlink" x="0px" y="0px"
	 width="398px" height="440px" viewBox="0 0 398 440" enable-background="new 0 0 398 440" xml:space="preserve">
<g>
	<polygon fill="#FF5555" points="318.013,154.353 354.713,117.677 236.958,0 200.257,36.676 239.226,75.619 79.605,234.16 
		121.783,276.31 122.077,276.604 281.211,117.576 	"/>
</g>
<g>
	<path fill="#FFFFFF" d="M62.07,216.637l36.701-36.676l-26.019-26.002c-16.442-16.431-19.084-39.023-2.642-55.454
		c16.148-16.137,38.756-13.497,55.198,2.934l25.321,25.304l36.701-36.676l-31.193-31.172c-42.279-42.251-94.541-36.97-128.599-2.934
		c-34.352,34.329-39.93,86.262,2.642,128.807L62.07,216.637z"/>
	<path fill="#FFFFFF" d="M334.105,173.318c7.817,14.437,6.578,30.944-6.211,43.724c-16.148,16.137-38.756,13.497-55.198-2.934
		l-25.321-25.304l-36.701,36.676l31.193,31.172c42.279,42.251,94.541,36.97,128.599,2.934c33.142-33.12,39.495-82.624,1.671-124.276
		L334.105,173.318z"/>
</g>
<g>
	<path fill="#FF5555" d="M170.87,325.777l3.936-8.055l-16.434-16.425l-8.061,3.935l-12.186-12.177l57.367-25.978l13.56,13.551
		l-25.996,57.327L170.87,325.777z M191.679,284.499l-20.995,10.367l10.561,10.554L191.679,284.499z"/>
	<path fill="#FF5555" d="M185.929,340.826l41.682-41.654l10.747,10.741l-32.308,32.286l16.748,16.737l-9.373,9.367L185.929,340.826z
		"/>
	<path fill="#FF5555" d="M243.419,398.277l4.749-26.602l-6.311,0.686l-12.186,12.177l-10.748-10.74l41.681-41.653l10.749,10.74
		l-17.123,17.111l29.933-4.309l13.247,13.24l-35.681,3.31l-5.124,39.218L243.419,398.277z"/>
	<path fill="#FF5555" d="M262.664,405.769l14.06-2.685c0,5.994,2.124,13.114,7.874,18.86c3.624,3.622,7.124,4.621,9.186,2.56
		c5.5-5.496-22.621-24.481-6.562-40.53c6.999-6.994,19.123-7.37,29.809,3.309c6.687,6.683,10.498,14.489,11.122,22.732
		l-13.936,2.186c-0.562-6.432-3.687-12.428-7.811-16.549c-3.124-3.122-5.561-3.434-7.373-1.624
		c-5.125,5.121,22.308,24.792,6.81,40.279c-8.374,8.368-20.122,7.744-31.308-3.434C266.1,422.442,262.914,413.888,262.664,405.769z"
		/>
</g>
</svg>
